<mxfile host="app.diagrams.net" modified="2024-04-20T07:18:07.638Z" agent="Mozilla/5.0 (Windows NT 10.0; Win64; x64) AppleWebKit/537.36 (KHTML, like Gecko) Chrome/124.0.0.0 Safari/537.36" version="23.1.2" etag="4XwIRcwK6813mVJ6GjMR" type="github">
  <diagram name="Page-1" id="S_R4FNiDpLBkSJHHHjHs">
    <mxGraphModel>
      <root>
        <mxCell id="0" />
        <mxCell id="1" parent="0" />
      </root>
    </mxGraphModel>
  </diagram>
</mxfile>
